<?xml version="1.0" encoding="utf-8"?>
<!-- Generator: Adobe Illustrator 16.0.0, SVG Export Plug-In . SVG Version: 6.00 Build 0)  -->
<!DOCTYPE svg PUBLIC "-//W3C//DTD SVG 1.1//EN" "http://www.w3.org/Graphics/SVG/1.1/DTD/svg11.dtd">
<svg version="1.1" id="레이어_1" xmlns="http://www.w3.org/2000/svg" xmlns:xlink="http://www.w3.org/1999/xlink" x="0px"
	 y="0px" width="425.2px" height="425.2px" viewBox="0 0 425.2 425.2" enable-background="new 0 0 425.2 425.2"
	 xml:space="preserve">
<circle fill="#3282C5" cx="212.138" cy="214.791" r="177.252"/>
<path fill="#FAFAFA" d="M270.619,97.906c-11.203,27.704-66.611,31.83-91.369,71.321c-21.675,34.582-20.758,77.295-20.194,87.39
	c1.517-2.961,3.053-5.907,4.614-8.836c20.279-38.021,47.17-76.424,85.555-100.479c2.218-1.39,5.128-1.731,7.331-3.113
	c-38.533,24.151-65.001,62.466-85.552,100.487c-2.713,5.017-5.095,9.337-7.261,13.328c52.158-9.996,74.454-33.954,74.454-33.954
	c-11.198,0-20.55-5.304-20.55-5.304c11.278,0,27.032-4.129,27.032-4.129C294.782,188.685,270.619,97.906,270.619,97.906z"/>
<path fill="#FFFFFF" d="M159.056,256.617c-9.472,18.469-18.017,37.529-24.386,56.949c0.479-1.453,11.346-14.767,11.854-16.312
	c5.626-17.157,10.276-26.453,17.22-39.251c-1.491,0.286-2.997,0.565-4.535,0.826C159.208,258.83,159.135,258.052,159.056,256.617z"
	/>
<path fill="#3282C5" d="M256.557,144.188c-2.203,1.382-5.113,1.724-7.331,3.113c-38.385,24.056-65.276,62.458-85.555,100.479
	c-1.561,2.929-3.097,5.875-4.614,8.836c0.079,1.435,0.152,2.213,0.152,2.213c1.539-0.261,3.044-0.54,4.535-0.826
	c2.166-3.991,4.548-8.312,7.261-13.328C191.556,206.654,218.023,168.34,256.557,144.188z"/>
<path fill="none" stroke="#FFFFFF" stroke-miterlimit="10" d="M138.48,316.147c4.433-9.326,25.334-11.871,30.403-3.815
	c5.065,8.058,14.566,2.543,19-2.545c4.435-5.086,6.968-2.867,13.301,2.171c6.333,5.037,15.836,5.81,17.735-0.302
	c1.898-6.108,12.515-1.417,15.124,2.387c2.609,3.803,6.41,4.997,10.211-2.387c3.801-7.38,10.767-5.541,13.301,0.324
	c2.533,5.865,9.188,8.86,12.83,2.063"/>
</svg>
