<?xml version="1.0" encoding="utf-8"?>
<!-- Generator: Adobe Illustrator 16.0.0, SVG Export Plug-In . SVG Version: 6.00 Build 0)  -->
<!DOCTYPE svg PUBLIC "-//W3C//DTD SVG 1.1//EN" "http://www.w3.org/Graphics/SVG/1.1/DTD/svg11.dtd">
<svg version="1.1" id="레이어_1" xmlns="http://www.w3.org/2000/svg" xmlns:xlink="http://www.w3.org/1999/xlink" x="0px"
	 y="0px" width="425.2px" height="425.2px" viewBox="0 0 425.2 425.2" enable-background="new 0 0 425.2 425.2"
	 xml:space="preserve">
<g>
	<path fill="#F1D65A" stroke="#7F7875" stroke-width="2" stroke-miterlimit="10" d="M389.389,212.6
		c0,95.983-77.81,173.791-173.788,173.791c-95.985,0-173.793-77.808-173.793-173.791S119.615,38.81,215.601,38.81
		C311.579,38.81,389.389,116.617,389.389,212.6z"/>
	<path fill="#FFFFFF" d="M215.426,384.755c70.917,0,132.015-41.896,160-102.267l-27.898-24.942l-54.365,48.608l-65.596-48.608
		l-70.407,52.172l-58.354-52.172L60.19,292.069C89.979,347.255,148.32,384.755,215.426,384.755z"/>
	<circle fill="#040000" cx="154.213" cy="139.108" r="11.55"/>
	<circle fill="#040000" cx="276.981" cy="139.108" r="11.55"/>
	<path fill="#BC7A58" d="M239.364,218.227c0,0,20.904-3.234,17.277-30.688c0,0-6.573-28.848-41.014-28.848
		c0,0-30.46,0.279-38.86,42.02c0,0-2.77,5.218,3.517,16.423c0,0,6.905-14.898,20.611-14.787c0,0,9.664-3.129,20.597,10.126
		C221.492,212.473,229.448,218.787,239.364,218.227z"/>
	<path fill="#040000" d="M216.489,175.222c0,2.451,1.051,4.441,2.346,4.441c1.296,0,2.346-1.99,2.346-4.441
		c0-2.457-1.05-4.451-2.346-4.451C217.54,170.771,216.489,172.765,216.489,175.222z"/>
</g>
</svg>
