<?xml version="1.0" encoding="utf-8"?>
<!-- Generator: Adobe Illustrator 16.0.0, SVG Export Plug-In . SVG Version: 6.00 Build 0)  -->
<!DOCTYPE svg PUBLIC "-//W3C//DTD SVG 1.1//EN" "http://www.w3.org/Graphics/SVG/1.1/DTD/svg11.dtd">
<svg version="1.1" id="레이어_1" xmlns="http://www.w3.org/2000/svg" xmlns:xlink="http://www.w3.org/1999/xlink" x="0px"
	 y="0px" width="425.2px" height="198.43px" viewBox="0 0 425.2 198.43" enable-background="new 0 0 425.2 198.43"
	 xml:space="preserve">
<path fill="#3282C5" d="M420.008,99.947c-0.588-0.64-1.309-1.092-2.157-1.35c-0.848-0.256-1.658-0.28-2.43-0.077
	c-0.77,0.207-1.258,0.747-1.462,1.62c-0.415,1.645-1.068,3.327-1.969,5.048c-0.898,1.724-2.003,3.354-3.313,4.896
	c-1.313,1.541-2.791,2.905-4.435,4.087c-1.645,1.184-3.366,2.029-5.166,2.543c-1.798,0.567-3.289,0.631-4.468,0.193
	c-1.186-0.436-2.121-1.183-2.814-2.236c-0.695-1.053-1.194-2.325-1.506-3.816c-0.309-1.488-0.49-3.031-0.538-4.627
	c2.928,0.207,5.537-0.318,7.823-1.579c2.289-1.258,4.229-2.93,5.821-5.011c1.593-2.08,2.8-4.419,3.622-7.015
	c0.825-2.595,1.284-5.178,1.393-7.748c0.047-2.415-0.311-4.458-1.082-6.13c-0.771-1.668-1.811-2.967-3.122-3.893
	c-1.313-0.925-2.815-1.465-4.513-1.62c-1.695-0.154-3.416,0.078-5.163,0.695c-2.109,0.721-3.894,1.889-5.358,3.507
	c-1.465,1.619-2.686,3.498-3.662,5.628c-0.977,2.135-1.749,4.433-2.313,6.899c-0.566,2.468-0.977,4.896-1.232,7.287
	c-0.172,1.592-0.274,3.122-0.341,4.624c-0.659,1.177-1.449,2.359-2.397,3.547c-1.416,1.772-2.942,3.331-4.586,4.664
	c-1.287,1.029-2.57,1.827-3.854,2.391c-1.287,0.565-2.508,0.809-3.662,0.731c-1.156-0.076-2.173-0.54-3.046-1.388
	c-0.875-0.849-1.518-2.222-1.928-4.123c2.415-3.032,4.727-6.361,6.938-9.985c2.207-3.623,4.175-7.295,5.897-11.023
	c1.722-3.725,3.123-7.363,4.203-10.909c1.079-3.546,1.719-6.771,1.924-9.675c0.207-2.903-0.075-5.345-0.845-7.325
	c-0.771-1.978-2.186-3.224-4.241-3.739c-2.622-0.667-4.999-0.705-7.132-0.115c-2.134,0.593-4.036,1.657-5.703,3.199
	c-1.673,1.542-3.123,3.483-4.356,5.82c-1.233,2.341-2.288,4.896-3.161,7.671c-0.722,2.212-1.311,4.499-1.771,6.861
	c-0.465,2.367-0.851,4.742-1.157,7.131c-0.309,2.391-0.526,4.757-0.658,7.093c-0.125,2.34-0.189,4.563-0.189,6.668
	c0,0.393,0.023,0.766,0.033,1.149c-1.685,2.336-3.316,4.231-4.894,5.675c-2.158,1.978-4.315,3.506-6.473,4.587
	c1.078-2.673,1.822-5.705,2.234-9.098c0.409-3.392,0.386-6.681-0.077-9.868c-0.462-3.185-1.402-6.063-2.813-8.635
	c-1.414-2.567-3.381-4.418-5.898-5.551c-2.107-0.925-4.239-1.142-6.399-0.654c-2.157,0.489-4.162,1.375-6.013,2.658
	c-1.849,1.287-3.483,2.829-4.896,4.626c-1.413,1.801-2.404,3.575-2.968,5.32l0.771-9.56c0.104-0.976-0.283-1.799-1.156-2.467
	c-0.875-0.667-1.865-1.079-2.967-1.233c-1.107-0.155-2.174-0.012-3.199,0.423c-1.029,0.438-1.646,1.299-1.852,2.583
	c0,0.154-0.077,1.156-0.23,3.007c-0.156,1.851-0.336,4.256-0.54,7.209c-0.185,2.621-0.387,5.584-0.609,8.852
	c-0.127,0.235-0.239,0.503-0.316,0.823c-0.616,2.418-1.362,4.51-2.235,6.283c-0.875,1.771-1.773,3.237-2.697,4.394
	c-0.925,1.157-1.838,1.994-2.737,2.507c-0.901,0.515-1.736,0.719-2.507,0.615c-0.463-0.049-0.707-0.551-0.732-1.504
	c-0.026-0.948,0.05-2.195,0.232-3.738c0.18-1.543,0.398-3.3,0.654-5.28c0.257-1.978,0.448-4.009,0.578-6.09
	c0.129-2.081,0.142-4.149,0.038-6.207c-0.103-2.055-0.437-3.942-1.002-5.665c-0.565-1.72-1.425-3.188-2.581-4.395
	c-1.157-1.207-2.687-2.016-4.587-2.429c-1.851-0.359-3.572-0.32-5.167,0.115c-1.593,0.438-3.046,1.131-4.354,2.082
	c-1.313,0.951-3.429,2.043-4.56,3.275C270.849,84.413,268,85.646,268,86.88v-1.696c0-1.695,0.395-3.007-0.454-3.932
	c-0.848-0.926-1.362-1.427-2.44-1.504c-1.08-0.077-1.885,0.271-2.861,1.041s-1.481,2.005-1.738,3.701
	c-0.259,6.321-0.446,11.437-0.677,15.342c-0.023,0.395-0.016,0.747-0.039,1.128c-0.045,0.02-0.067,0.045-0.109,0.066
	c-0.824,0.386-1.718,0.722-2.693,1.001c-0.978,0.285-2.08,0.453-3.312,0.503c0.206-0.926,0.373-1.953,0.503-3.085
	c0.127-1.128,0.233-2.313,0.31-3.546c0.077-1.233,0.101-2.468,0.077-3.7c-0.024-1.232-0.09-2.364-0.192-3.393
	c-0.258-2.209-0.732-4.304-1.426-6.282c-0.694-1.979-1.634-3.635-2.814-4.973c-1.182-1.334-2.66-2.236-4.432-2.698
	c-1.774-0.463-3.843-0.308-6.208,0.462c-3.495-0.462-6.644-0.14-9.444,0.964c-2.799,1.106-5.23,2.711-7.284,4.818
	c-2.056,2.108-3.739,4.588-5.052,7.439c-1.308,2.854-2.184,5.783-2.619,8.789c-0.132,0.902-0.209,1.8-0.262,2.696
	c-0.302,0.424-0.662,0.897-1.089,1.428c-0.821,1.03-1.759,2.174-2.813,3.431c-1.056,1.261-2.158,2.532-3.315,3.816
	c-1.155,1.286-2.275,2.481-3.354,3.585c-1.08,1.105-2.058,2.032-2.93,2.776c-0.873,0.745-1.517,1.194-1.927,1.348
	c0.102-4.934,0.565-9.659,1.388-14.185c0.82-4.521,1.85-9.058,3.082-13.607c1.234-4.548,2.585-9.187,4.05-13.916
	c1.463-4.727,2.89-9.763,4.278-15.11c0.203-0.872,0.141-1.668-0.193-2.389c-0.335-0.719-0.835-1.312-1.503-1.774
	c-0.67-0.462-1.428-0.783-2.274-0.963c-0.848-0.178-1.645-0.178-2.391,0c-0.745,0.181-1.388,0.527-1.927,1.042
	c-0.54,0.515-0.835,1.233-0.886,2.158c-1.132,4.216-2.403,8.442-3.817,12.682c-1.414,4.24-2.943,8.34-4.587,12.297
	c-1.645,3.958-3.341,7.646-5.088,11.063c-1.748,3.421-3.521,6.36-5.32,8.828c-1.799,2.466-3.583,4.382-5.357,5.743
	c-1.772,1.364-3.457,1.965-5.05,1.812c-1.595-0.153-2.698-1.22-3.315-3.199c-0.616-1.979-0.886-4.472-0.809-7.478
	c0.077-3.007,0.425-6.361,1.041-10.062c0.617-3.7,1.348-7.347,2.197-10.948c0.847-3.596,1.759-6.976,2.737-10.137
	c0.975-3.16,1.849-5.69,2.62-7.593c0.616-1.542,0.551-2.838-0.193-3.893c-0.744-1.053-1.735-1.787-2.968-2.198
	s-2.494-0.462-3.776-0.154c-1.287,0.308-2.16,1.08-2.621,2.313c-0.465,1.233-1.105,2.995-1.93,5.281
	c-0.821,2.288-1.669,4.91-2.544,7.863c-0.873,2.956-1.708,6.143-2.505,9.561c-0.798,3.419-1.426,6.861-1.889,10.33
	c-0.463,3.471-0.654,6.849-0.576,10.138c0.075,3.292,0.524,6.297,1.348,9.02c0.822,2.726,2.106,5.051,3.854,6.979
	c1.748,1.927,4.112,3.252,7.094,3.97c1.747,0.464,3.482,0.464,5.203,0c1.722-0.464,3.418-1.245,5.09-2.352
	c1.669-1.104,3.288-2.506,4.854-4.202c1.568-1.696,3.098-3.547,4.589-5.551c-0.361,2.313-0.67,4.434-0.926,6.361
	c-0.257,1.927-0.464,4.021-0.616,6.283c-2.931,1.079-5.655,2.569-8.171,4.471c-2.521,1.9-4.729,4.019-6.632,6.361
	c-1.902,2.336-3.431,4.791-4.587,7.362c-1.156,2.569-1.838,5.011-2.043,7.323c-0.205,2.313,0.128,4.417,1.002,6.321
	c0.873,1.901,2.39,3.34,4.55,4.318c2.568,1.18,4.983,1.604,7.245,1.27c2.261-0.333,4.331-1.207,6.208-2.62
	c1.874-1.413,3.557-3.251,5.048-5.513c1.49-2.262,2.737-4.69,3.74-7.283c1.002-2.598,1.748-5.271,2.235-8.02
	c0.487-2.75,0.681-5.307,0.577-7.669c2.056-1.234,4.088-2.688,6.092-4.356c2.004-1.669,3.943-3.493,5.82-5.474
	c1.873-1.976,3.658-4.042,5.352-6.198c0.44,1.223,0.978,2.378,1.627,3.462c1.386,2.312,3.262,4.189,5.625,5.627
	c2.365,1.438,5.27,2.133,8.712,2.082c3.701-0.053,7.118-0.989,10.254-2.813s5.707-4.511,7.71-8.057c3.031,0,6.014-0.502,8.942-1.503
	c0.045-0.016,0.088-0.04,0.133-0.053c-0.193,2.206-0.342,3.902-0.439,5.063c-0.104,1.207-0.129,2.274-0.08,3.199
	c0.26,1.44,0.862,2.418,1.813,2.929c0.952,0.517,1.939,0.72,2.967,0.617c1.028-0.101,1.98-0.424,2.854-0.964
	c0.873-0.539,1.39-1.168,1.543-1.89c0.049-1.592,0.271-3.531,0.654-5.819c0.386-2.286,0.911-4.638,1.58-7.053
	c0.668-2.416,1.466-4.782,2.39-7.094c0.926-2.313,1.938-4.356,3.046-6.129c1.104-1.774,2.3-3.123,3.586-4.048
	c1.284-0.926,2.619-1.207,4.008-0.849c1.026,0.259,1.696,0.914,2.005,1.966c0.309,1.056,0.436,2.353,0.386,3.893
	c-0.052,1.543-0.233,3.268-0.54,5.167c-0.308,1.901-0.591,3.854-0.848,5.858s-0.413,3.971-0.464,5.898
	c-0.05,1.927,0.154,3.7,0.617,5.318c0.464,1.619,1.245,3.009,2.352,4.163c1.104,1.157,2.686,1.938,4.741,2.352
	c2.055,0.411,4.02,0.166,5.897-0.732c1.874-0.898,3.609-2.247,5.203-4.048c0.038-0.039,0.067-0.085,0.104-0.124
	c-0.163,2.137-0.326,4.279-0.487,6.409c-0.31,4.032-0.591,7.797-0.851,11.292c-0.254,3.495-0.5,6.565-0.73,9.214
	c-0.233,2.646-0.427,4.587-0.577,5.821c-0.104,1.078,0.283,1.835,1.154,2.273c0.874,0.436,1.875,0.655,3.006,0.655
	s2.198,0.477,3.2,0.063c1.003-0.408,1.58-0.857,1.735-0.857h0.078c0,0,0.011-0.875,0.037-1.105c0.025-0.232,0.063-1.036,0.113-1.729
	c0.051-0.695,0.144-1.855,0.273-3.14c0.125-1.287,0.307-3.116,0.537-5.325c0.232-2.211,0.502-4.993,0.811-8.256
	c0.31-3.263,0.695-7.229,1.154-11.855c2.315,1.335,4.845,2.211,7.596,2.651c2.749,0.437,5.563,0.496,8.44,0.187
	c2.879-0.308,5.718-0.967,8.521-1.968c2.799-1.004,5.447-2.262,7.939-3.779c2.493-1.517,4.729-3.278,6.707-5.282
	c0.781-0.793,1.489-1.61,2.154-2.443c0.811,2.636,1.919,4.903,3.358,6.76c1.593,2.057,3.571,3.522,5.937,4.396
	c2.364,0.872,5.09,0.897,8.171,0.076c3.136-0.82,6.219-2.545,9.252-5.166c0.729-0.609,1.423-1.282,2.104-1.981
	c0.317,1.433,0.756,2.738,1.328,3.909c1.104,2.265,2.605,4.01,4.51,5.243c1.901,1.233,4.137,1.912,6.706,2.042
	c2.57,0.128,5.37-0.347,8.405-1.426c2.258-0.822,4.225-1.85,5.896-3.084c1.669-1.233,3.174-2.736,4.513-4.511
	c1.334-1.772,2.556-3.814,3.66-6.128c1.105-2.313,2.224-4.958,3.354-7.941C420.793,101.323,420.599,100.592,420.008,99.947z
	 M391.139,95.437c0.154-1.181,0.382-2.428,0.694-3.738c0.309-1.311,0.692-2.582,1.154-3.816c0.463-1.233,1.003-2.299,1.622-3.198
	c0.616-0.898,1.269-1.543,1.963-1.929c0.696-0.385,1.401-0.347,2.12,0.117c0.771,0.462,1.247,1.439,1.428,2.929
	c0.179,1.492,0,3.083-0.539,4.779c-0.54,1.695-1.503,3.291-2.894,4.78c-1.387,1.492-3.264,2.467-5.628,2.93
	C390.958,97.573,390.982,96.619,391.139,95.437z M189.267,133.984c-0.385,1.438-0.9,2.929-1.541,4.472
	c-0.643,1.54-1.376,3.045-2.197,4.51c-0.822,1.466-1.671,2.709-2.545,3.738c-0.874,1.027-1.734,1.76-2.582,2.198
	c-0.848,0.435-1.633,0.397-2.352-0.116c-0.873-0.616-1.157-1.772-0.849-3.47c0.309-1.695,1.054-3.536,2.236-5.512
	c1.182-1.979,2.685-3.869,4.511-5.667c1.823-1.8,3.815-3.084,5.973-3.854C189.871,131.309,189.653,132.545,189.267,133.984z
	 M239.764,110.047c-0.797,0.848-1.685,1.579-2.66,2.196c-0.978,0.616-1.979,1.079-3.005,1.388c-1.03,0.309-1.954,0.387-2.776,0.232
	c-2.313-0.463-4.087-1.465-5.319-3.008c-1.234-1.541-2.019-3.354-2.353-5.435c-0.335-2.081-0.295-4.302,0.117-6.668
	c0.41-2.364,1.104-4.562,2.081-6.592c0.975-2.028,2.159-3.778,3.547-5.243c1.388-1.464,2.902-2.376,4.547-2.736
	c-0.614,2.621-0.822,5.334-0.614,8.134c0.204,2.802,0.871,5.435,2.002,7.9c0.719,1.492,1.581,2.854,2.582,4.087
	c1.004,1.235,2.223,2.288,3.663,3.16C241.164,108.34,240.561,109.198,239.764,110.047z M246.588,94.666
	c-0.054,1.233-0.169,2.327-0.35,3.277c-0.18,0.951-0.423,1.555-0.73,1.812c-0.566-0.31-1.261-1.104-2.083-2.39
	c-0.822-1.284-1.465-2.736-1.927-4.356c-0.463-1.618-0.605-3.211-0.424-4.78c0.181-1.565,0.988-2.786,2.429-3.66
	c0.564-0.311,1.054-0.194,1.465,0.346c0.41,0.54,0.744,1.324,1.004,2.352c0.255,1.028,0.434,2.211,0.537,3.546
	C246.612,92.149,246.636,93.432,246.588,94.666z M334.55,98.79c-0.205,2.444-0.63,4.795-1.271,7.055
	c-0.645,2.262-1.376,3.984-2.197,5.166c-1.03,1.439-2.378,2.544-4.048,3.314c-1.671,0.771-3.354,1.132-5.05,1.08
	c-1.694-0.05-3.226-0.578-4.587-1.581c-1.363-1.002-2.249-2.556-2.661-4.665c-0.153-1.59,0.041-3.378,0.58-5.357
	c0.539-1.979,1.284-3.943,2.235-5.897c0.949-1.952,2.055-3.802,3.314-5.55c1.259-1.747,2.557-3.174,3.895-4.279
	c1.334-1.104,2.646-1.799,3.93-2.082c1.284-0.282,2.442,0.038,3.471,0.963c1.13,1.029,1.86,2.649,2.197,4.857
	C334.691,94.025,334.755,96.352,334.55,98.79z M359.838,95.745c0-0.666,0.089-1.657,0.271-2.968
	c0.179-1.311,0.436-2.787,0.771-4.434c0.332-1.644,0.718-3.416,1.154-5.319c0.436-1.899,0.938-3.777,1.505-5.627
	c0.514-1.798,1.079-3.532,1.697-5.204c0.616-1.67,1.243-3.123,1.889-4.356c0.642-1.233,1.295-2.209,1.965-2.931
	c0.667-0.716,1.311-1.05,1.928-1.001c0.618,0.054,0.986,0.489,1.118,1.311c0.124,0.823,0.076,1.89-0.155,3.2
	c-0.231,1.309-0.616,2.827-1.154,4.547c-0.542,1.724-1.196,3.536-1.967,5.435c-0.618,1.597-1.301,3.215-2.042,4.858
	c-0.748,1.645-1.518,3.226-2.316,4.741c-0.795,1.518-1.593,2.943-2.386,4.277C361.313,93.615,360.556,94.771,359.838,95.745z"/>
<g>
	<circle fill="#3282C5" cx="67.832" cy="92.465" r="62.375"/>
	<path fill="#FAFAFA" d="M88.411,51.334c-3.941,9.748-23.44,11.2-32.152,25.097c-7.627,12.169-7.305,27.2-7.106,30.752
		c0.533-1.041,1.075-2.079,1.624-3.109c7.136-13.379,16.598-26.893,30.105-35.358c0.781-0.489,1.806-0.609,2.581-1.096
		c-13.56,8.499-22.874,21.981-30.106,35.36c-0.955,1.767-1.793,3.287-2.555,4.69c18.354-3.517,26.2-11.947,26.2-11.947
		c-3.941,0-7.231-1.867-7.231-1.867c3.969,0,9.514-1.452,9.514-1.452C96.915,83.278,88.411,51.334,88.411,51.334z"/>
	<path fill="#FFFFFF" d="M49.152,107.184c-3.333,6.499-6.341,13.206-8.582,20.04c0.168-0.511,3.993-5.195,4.171-5.74
		c1.981-6.037,3.615-9.309,6.06-13.813c-0.525,0.101-1.056,0.199-1.596,0.291C49.206,107.962,49.18,107.689,49.152,107.184z"/>
	<path fill="#3282C5" d="M83.462,67.621c-0.775,0.486-1.8,0.606-2.581,1.096c-13.508,8.465-22.969,21.979-30.105,35.358
		c-0.549,1.03-1.091,2.068-1.624,3.109c0.028,0.506,0.054,0.778,0.054,0.778c0.54-0.092,1.07-0.19,1.596-0.291
		c0.762-1.403,1.6-2.924,2.555-4.69C60.589,89.602,69.903,76.119,83.462,67.621z"/>
	<path fill="none" stroke="#FFFFFF" stroke-miterlimit="10" d="M41.911,128.133c1.561-3.283,8.916-4.179,10.698-1.343
		c1.783,2.835,5.127,0.895,6.687-0.896c1.56-1.79,2.453-1.009,4.681,0.763c2.229,1.773,5.572,2.045,6.24-0.106
		c0.669-2.147,4.405-0.497,5.324,0.84c0.918,1.34,2.254,1.759,3.593-0.84c1.336-2.597,3.789-1.948,4.68,0.114
		c0.893,2.065,3.233,3.118,4.514,0.726"/>
</g>
</svg>
