<?xml version="1.0" encoding="utf-8"?>
<!-- Generator: Adobe Illustrator 16.0.3, SVG Export Plug-In . SVG Version: 6.00 Build 0)  -->
<!DOCTYPE svg PUBLIC "-//W3C//DTD SVG 1.1 Tiny//EN" "http://www.w3.org/Graphics/SVG/1.1/DTD/svg11-tiny.dtd">
<svg version="1.1" baseProfile="tiny" id="레이어_1"
	 xmlns="http://www.w3.org/2000/svg" xmlns:xlink="http://www.w3.org/1999/xlink" x="0px" y="0px" width="255.12px"
	 height="255.12px" viewBox="0 0 255.12 255.12" xml:space="preserve">
<g>
	<path fill="#FFFFFF" stroke="#807976" stroke-width="2" stroke-miterlimit="10" d="M102.069,206.964l22.675-18.799l27.275,22.614
		l27.274-22.614l34.608,28.693c23.176-22.396,37.609-53.779,37.609-88.55c0-68.017-55.14-123.157-123.156-123.157
		c-68.018,0-123.157,55.14-123.157,123.157c0,35.228,14.815,66.979,38.53,89.428l35.667-29.571L102.069,206.964z"/>
	<path fill="#3E341F" stroke="#7F7875" stroke-width="2" stroke-miterlimit="10" d="M213.901,216.858l-34.608-28.693l-27.274,22.614
		l-27.275-22.614l-22.675,18.799l-22.673-18.799l-35.667,29.571c22.068,20.892,51.838,33.729,84.626,33.729
		C161.6,251.466,191.745,238.268,213.901,216.858z"/>
	<circle fill="#040000" cx="85.223" cy="96.03" r="8.202"/>
	<circle fill="#040000" cx="172.404" cy="96.03" r="8.202"/>
	<path fill="#F6C650" d="M144.509,154.143c0,0,14.846-2.297,12.269-21.792c0,0-4.668-20.485-29.124-20.485
		c0,0-21.629,0.198-27.594,29.84c0,0-1.967,3.703,2.497,11.66c0,0,4.903-10.581,14.635-10.499c0,0,6.863-2.224,14.626,7.188
		C131.817,150.056,137.468,154.54,144.509,154.143z"/>
	<ellipse fill="#040000" cx="129.93" cy="123.603" rx="1.665" ry="3.155"/>
</g>
</svg>
