<?xml version="1.0" encoding="utf-8"?>
<!-- Generator: Adobe Illustrator 16.0.3, SVG Export Plug-In . SVG Version: 6.00 Build 0)  -->
<!DOCTYPE svg PUBLIC "-//W3C//DTD SVG 1.1 Tiny//EN" "http://www.w3.org/Graphics/SVG/1.1/DTD/svg11-tiny.dtd">
<svg version="1.1" baseProfile="tiny" id="레이어_1"
	 xmlns="http://www.w3.org/2000/svg" xmlns:xlink="http://www.w3.org/1999/xlink" x="0px" y="0px" width="64px" height="64px"
	 viewBox="0 0 64 64" xml:space="preserve">
<g>
	<path fill="#858D95" d="M51.01,0.495c-3.272,8.095-19.462,9.3-26.695,20.839c-6.334,10.105-6.065,22.583-5.901,25.534
		c0.443-0.867,0.893-1.727,1.348-2.584c5.926-11.107,13.783-22.328,24.998-29.355c0.648-0.406,1.499-0.506,2.143-0.91
		c-11.258,7.055-18.992,18.25-24.998,29.361c-0.792,1.465-1.487,2.729-2.121,3.893c15.239-2.922,21.754-9.918,21.754-9.918
		c-3.272,0-6.003-1.553-6.003-1.553c3.295,0,7.898-1.205,7.898-1.205C58.068,27.018,51.01,0.495,51.01,0.495z"/>
	<path fill="#858D95" d="M18.413,46.867c-2.768,5.396-5.266,10.965-7.125,16.639c0.14-0.426,3.315-4.314,3.463-4.766
		c1.645-5.012,3.002-7.729,5.032-11.469c-0.436,0.082-0.876,0.164-1.325,0.242C18.458,47.514,18.436,47.285,18.413,46.867z"/>
	<path fill="none" d="M46.901,14.018c-0.644,0.403-1.494,0.503-2.143,0.91c-11.215,7.027-19.072,18.248-24.998,29.355
		c-0.455,0.857-0.905,1.717-1.348,2.584c0.023,0.418,0.044,0.646,0.044,0.646c0.449-0.078,0.889-0.16,1.325-0.242
		c0.634-1.164,1.33-2.428,2.121-3.893C27.909,32.268,35.644,21.073,46.901,14.018z"/>
</g>
</svg>
