<?xml version="1.0" encoding="utf-8"?>
<!-- Generator: Adobe Illustrator 16.0.3, SVG Export Plug-In . SVG Version: 6.00 Build 0)  -->
<!DOCTYPE svg PUBLIC "-//W3C//DTD SVG 1.1 Tiny//EN" "http://www.w3.org/Graphics/SVG/1.1/DTD/svg11-tiny.dtd">
<svg version="1.1" baseProfile="tiny" id="레이어_1"
	 xmlns="http://www.w3.org/2000/svg" xmlns:xlink="http://www.w3.org/1999/xlink" x="0px" y="0px" width="70.87px" height="70.87px"
	 viewBox="0 0 70.87 70.87" xml:space="preserve">
<path fill="#228BE6" d="M54.878,5.566c-3.102,7.673-18.451,8.817-25.309,19.756c-6.005,9.581-5.75,21.412-5.595,24.207
	c0.42-0.82,0.847-1.635,1.278-2.447c5.618-10.531,13.065-21.17,23.699-27.833c0.615-0.386,1.421-0.48,2.031-0.863
	c-10.674,6.689-18.006,17.303-23.7,27.836c-0.751,1.389-1.41,2.586-2.011,3.691c14.448-2.77,20.623-9.404,20.623-9.404
	c-3.102,0-5.69-1.471-5.69-1.471c3.124,0,7.489-1.145,7.489-1.145C61.572,30.712,54.878,5.566,54.878,5.566z"/>
<path fill="#228BE6" d="M23.975,49.529c-2.624,5.115-4.992,10.396-6.755,15.775c0.133-0.404,3.143-4.092,3.283-4.52
	c1.56-4.75,2.846-7.326,4.771-10.871c-0.414,0.078-0.831,0.154-1.256,0.229C24.017,50.143,23.997,49.928,23.975,49.529z"/>
</svg>
