<?xml version="1.0" encoding="utf-8"?>
<!-- Generator: Adobe Illustrator 16.0.0, SVG Export Plug-In . SVG Version: 6.00 Build 0)  -->
<!DOCTYPE svg PUBLIC "-//W3C//DTD SVG 1.1//EN" "http://www.w3.org/Graphics/SVG/1.1/DTD/svg11.dtd">
<svg version="1.1" id="레이어_1" xmlns="http://www.w3.org/2000/svg" xmlns:xlink="http://www.w3.org/1999/xlink" x="0px"
	 y="0px" width="425.2px" height="425.2px" viewBox="0 0 425.2 425.2" enable-background="new 0 0 425.2 425.2"
	 xml:space="preserve">
<g>
	<g>
		<g>
			
				<path fill="none" stroke="#228BE6" stroke-width="16" stroke-linecap="round" stroke-linejoin="round" stroke-miterlimit="10" d="
				M242.919,241.696"/>
			
				<path fill="none" stroke="#228BE6" stroke-width="16" stroke-linecap="round" stroke-linejoin="round" stroke-miterlimit="10" d="
				M233.807,307.453c21.33,7.295,38.142,1.039,51.341-3.854c1.077-0.307,2.126-0.73,3.15-1.243
				c15.767-8.802,19.688-11.931,19.696-11.934l60.194-37.046c8.553-5.275,11.019-16.303,5.468-24.657
				c-5.546-8.344-15.514-8.322-25.537-5.58l-27.117,6.769l32.523-63.075c5.098-10.813,2.924-22.557-4.855-26.223
				c-7.776-3.659-18.221,2.13-23.311,12.947l-19.073,40.466l-1.309-0.618l29.519-62.64c5.098-10.814,2.919-22.554-4.857-26.22
				c-7.78-3.669-18.219,2.128-23.318,12.947l-29.513,62.637l-1.242-0.582l21.158-44.901c5.098-10.813,2.926-22.56-4.858-26.221
				c-7.773-3.664-18.218,2.13-23.313,12.945l-11.675,24.768c4.729-10.047,2.265-21.156-5.512-24.826
				c-7.783-3.665-17.924,1.509-22.659,11.551l-17.109,44.803"/>
			
				<line fill="none" stroke="#228BE6" stroke-width="16" stroke-linecap="round" stroke-linejoin="round" stroke-miterlimit="10" x1="256.878" y1="146.136" x2="241.088" y2="179.644"/>
		</g>
		<path fill="none" stroke="#228BE6" stroke-width="16" stroke-linecap="round" stroke-linejoin="round" stroke-miterlimit="10" d="
			M301.936,235.117c0,0,24.841-7.059,37.945-9.694"/>
	</g>
	<g>
		<path fill="none" stroke="#228BE6" stroke-width="16" stroke-linecap="round" stroke-linejoin="round" stroke-miterlimit="10" d="
			M247.231,253.479c12.403,56.795-48.381,77.737-48.381,77.737c-21.496,7.317-39.843,4.478-53.128-0.459
			c-1.083-0.315-2.134-0.745-3.168-1.257c-15.863-8.893-19.818-12.034-19.831-12.041L62.14,280.086
			c-8.612-5.329-11.082-16.436-5.487-24.85c5.596-8.399,15.641-8.358,25.729-5.586l30.296,21.146l-35.687-77.874
			c-5.118-10.896-2.921-22.72,4.923-26.402c7.835-3.687,18.345,2.163,23.467,13.062l19.167,40.775l1.319-0.615l-29.665-63.13
			c-5.125-10.894-2.921-22.715,4.92-26.4c7.835-3.689,18.345,2.163,23.47,13.062l29.665,63.125l1.25-0.582l-21.266-45.247
			c-5.122-10.901-2.921-22.729,4.92-26.412c7.836-3.683,18.345,2.169,23.463,13.065l11.735,24.961
			c-4.753-10.125-2.253-21.316,5.581-24.999c7.844-3.686,18.05,1.535,22.813,11.651l17.193,36.601l7.87,16.744
			C242.107,235.589,247.231,253.479,247.231,253.479"/>
		
			<line fill="none" stroke="#228BE6" stroke-width="16" stroke-linecap="round" stroke-linejoin="round" stroke-miterlimit="10" x1="174.359" y1="172.183" x2="190.232" y2="205.945"/>
	</g>
	<g>
		
			<line fill="none" stroke="#228BE6" stroke-width="16" stroke-linecap="round" stroke-linejoin="round" stroke-miterlimit="10" x1="154.864" y1="106.224" x2="131.657" y2="93.348"/>
		
			<line fill="none" stroke="#228BE6" stroke-width="16" stroke-linecap="round" stroke-linejoin="round" stroke-miterlimit="10" x1="182.771" y1="86.846" x2="165.583" y2="52.843"/>
		
			<line fill="none" stroke="#228BE6" stroke-width="16" stroke-linecap="round" stroke-linejoin="round" stroke-miterlimit="10" x1="214.126" y1="77.41" x2="221.436" y2="51.722"/>
	</g>
	<g>
		
			<line fill="none" stroke="#228BE6" stroke-width="16" stroke-linecap="round" stroke-linejoin="round" stroke-miterlimit="10" x1="297.856" y1="324.796" x2="318.708" y2="337.486"/>
		
			<line fill="none" stroke="#228BE6" stroke-width="16" stroke-linecap="round" stroke-linejoin="round" stroke-miterlimit="10" x1="271.499" y1="341.568" x2="286.042" y2="373.446"/>
		
			<line fill="none" stroke="#228BE6" stroke-width="16" stroke-linecap="round" stroke-linejoin="round" stroke-miterlimit="10" x1="242.342" y1="349.085" x2="234.683" y2="372.412"/>
	</g>
</g>
</svg>
